<?xml version="1.0" encoding="UTF-8" standalone="no"?>
<!-- Created with Inkscape (http://www.inkscape.org/) -->

<svg
   xmlns:dc="http://purl.org/dc/elements/1.1/"
   xmlns:cc="http://creativecommons.org/ns#"
   xmlns:rdf="http://www.w3.org/1999/02/22-rdf-syntax-ns#"
   xmlns:svg="http://www.w3.org/2000/svg"
   xmlns="http://www.w3.org/2000/svg"
   xmlns:sodipodi="http://sodipodi.sourceforge.net/DTD/sodipodi-0.dtd"
   xmlns:inkscape="http://www.inkscape.org/namespaces/inkscape"
   width="19.144617pt"
   height="19.144617pt"
   viewBox="0 0 23.93077 23.93077"
   version="1.1"
   id="svg8"
   inkscape:version="0.92.3 (2405546, 2018-03-11)"
   sodipodi:docname="drawing-1.svg">
  <defs
     id="defs2" />
  <sodipodi:namedview
     id="base"
     pagecolor="#ffffff"
     bordercolor="#666666"
     borderopacity="1.0"
     inkscape:pageopacity="0.0"
     inkscape:pageshadow="2"
     inkscape:zoom="22.4"
     inkscape:cx="41.148583"
     inkscape:cy="23.125785"
     inkscape:document-units="pt"
     inkscape:current-layer="layer1"
     showgrid="false"
     units="pt" />
  <metadata
     id="metadata5">
    <rdf:RDF>
      <cc:Work
         rdf:about="">
        <dc:format>image/svg+xml</dc:format>
        <dc:type
           rdf:resource="http://purl.org/dc/dcmitype/StillImage" />
        <dc:title></dc:title>
      </cc:Work>
    </rdf:RDF>
  </metadata>
  <g
     inkscape:label="Layer 1"
     inkscape:groupmode="layer"
     id="layer1"
     transform="translate(-0.03461421,-293.36796)">
    <g
       aria-label="Ads"
       style="font-style:normal;font-variant:normal;font-weight:normal;font-stretch:normal;font-size:10.2000246px;line-height:1.25;font-family:'Times New Roman';-inkscape-font-specification:'Times New Roman, ';letter-spacing:0px;word-spacing:0px;fill:#000000;fill-opacity:1;stroke:none;stroke-width:0.93749994"
       id="text819">
      <path
         d="M 8.2909367,309.15836 7.7605355,307.42435 H 5.1085291 l -0.5304013,1.73401 H 2.9155238 L 5.48593,301.84494 h 1.8870045 l 2.5806062,7.31342 z m -0.8976021,-3.02941 -0.5304013,-1.69321 q -0.051,-0.1734 -0.1326003,-0.4386 -0.0816,-0.2652 -0.1632004,-0.5406 -0.0816,-0.2754 -0.1326003,-0.4794 -0.051,0.204 -0.1428004,0.51 -0.0816,0.2958 -0.1632004,0.5712 -0.0714,0.2652 -0.1122003,0.3774 L 5.49613,306.12895 Z"
         style="font-style:normal;font-variant:normal;font-weight:bold;font-stretch:normal;font-family:'Noto Sans';-inkscape-font-specification:'Noto Sans Bold';stroke-width:0.93749994"
         id="path831" />
      <path
         d="m 12.508169,309.26036 q -0.928203,0 -1.519804,-0.72421 -0.581401,-0.7344 -0.581401,-2.1522 0,-1.428 0.591601,-2.16241 0.591601,-0.7344 1.550404,-0.7344 0.601801,0 0.989402,0.2346 0.387601,0.2346 0.612002,0.5814 h 0.051 q -0.0306,-0.1632 -0.0714,-0.4692 -0.0408,-0.3162 -0.0408,-0.6426 v -1.785 h 1.519803 v 7.75202 h -1.162803 l -0.2958,-0.72421 h -0.0612 q -0.224401,0.3468 -0.601802,0.59161 -0.377401,0.2346 -0.979202,0.2346 z m 0.530401,-1.21381 q 0.622201,0 0.877202,-0.3672 0.255001,-0.3774 0.275401,-1.122 v -0.1632 q 0,-0.8058 -0.255001,-1.2342 -0.2448,-0.4386 -0.918002,-0.4386 -0.499801,0 -0.785402,0.4386 -0.285601,0.4284 -0.285601,1.2444 0,0.816 0.285601,1.2342 0.285601,0.408 0.805802,0.408 z"
         style="font-style:normal;font-variant:normal;font-weight:bold;font-stretch:normal;font-family:'Noto Sans';-inkscape-font-specification:'Noto Sans Bold';stroke-width:0.93749994"
         id="path833" />
      <path
         d="m 21.084477,307.50595 q 0,0.8466 -0.601802,1.3056 -0.591601,0.44881 -1.774804,0.44881 -0.581401,0 -0.999602,-0.0816 -0.418201,-0.0714 -0.836402,-0.2448 v -1.25461 q 0.448801,0.204 0.969002,0.3366 0.520201,0.1326 0.918002,0.1326 0.438601,0 0.632402,-0.1326 0.1938,-0.1326 0.1938,-0.3468 0,-0.1428 -0.0816,-0.255 -0.0714,-0.1122 -0.326401,-0.255 -0.255001,-0.1428 -0.795602,-0.3672 -0.530401,-0.2244 -0.867002,-0.4386 -0.326401,-0.2244 -0.489601,-0.5304 -0.163201,-0.3162 -0.163201,-0.7854 0,-0.77521 0.601802,-1.16281 0.601801,-0.3876 1.601404,-0.3876 0.520201,0 0.989402,0.102 0.469201,0.102 0.969003,0.3366 l -0.459002,1.09141 q -0.408001,-0.1734 -0.775201,-0.2856 -0.367201,-0.12241 -0.744602,-0.12241 -0.673202,0 -0.673202,0.36721 0,0.1326 0.0816,0.2448 0.0918,0.102 0.336601,0.2244 0.255001,0.1224 0.744602,0.3264 0.479401,0.1938 0.826202,0.408 0.346801,0.204 0.530401,0.5202 0.193801,0.3162 0.193801,0.8058 z"
         style="font-style:normal;font-variant:normal;font-weight:bold;font-stretch:normal;font-family:'Noto Sans';-inkscape-font-specification:'Noto Sans Bold';stroke-width:0.93749994"
         id="path835" />
    </g>
    <path
       style="color:#000000;font-style:normal;font-variant:normal;font-weight:normal;font-stretch:normal;font-size:medium;line-height:normal;font-family:sans-serif;font-variant-ligatures:normal;font-variant-position:normal;font-variant-caps:normal;font-variant-numeric:normal;font-variant-alternates:normal;font-feature-settings:normal;text-indent:0;text-align:start;text-decoration:none;text-decoration-line:none;text-decoration-style:solid;text-decoration-color:#000000;letter-spacing:normal;word-spacing:normal;text-transform:none;writing-mode:lr-tb;direction:ltr;text-orientation:mixed;dominant-baseline:auto;baseline-shift:baseline;text-anchor:start;white-space:normal;shape-padding:0;clip-rule:nonzero;display:inline;overflow:visible;visibility:visible;opacity:1;isolation:auto;mix-blend-mode:normal;color-interpolation:sRGB;color-interpolation-filters:linearRGB;solid-color:#000000;solid-opacity:1;vector-effect:none;fill:#000000;fill-opacity:1;fill-rule:nonzero;stroke:none;stroke-width:1.87440944;stroke-linecap:round;stroke-linejoin:miter;stroke-miterlimit:4;stroke-dasharray:none;stroke-dashoffset:0;stroke-opacity:1;color-rendering:auto;image-rendering:auto;shape-rendering:auto;text-rendering:auto;enable-background:accumulate"
       d="m 12,293.36719 c -6.5971993,0 -11.96484375,5.3696 -11.96484375,11.96679 0,6.5972 5.36764445,11.96485 11.96484375,11.96485 6.597199,0 11.964844,-5.36765 11.964844,-11.96485 0,-6.59719 -5.367645,-11.96679 -11.964844,-11.96679 z m 0,1.875 c 5.584193,0 10.091797,4.5076 10.091797,10.09179 0,5.5842 -4.507604,10.08985 -10.091797,10.08985 -5.5841932,0 -10.0917969,-4.50565 -10.0917969,-10.08985 0,-5.58419 4.5076037,-10.09179 10.0917969,-10.09179 z"
       id="path821"
       inkscape:connector-curvature="0" />
    <path
       style="color:#000000;font-style:normal;font-variant:normal;font-weight:normal;font-stretch:normal;font-size:medium;line-height:normal;font-family:sans-serif;font-variant-ligatures:normal;font-variant-position:normal;font-variant-caps:normal;font-variant-numeric:normal;font-variant-alternates:normal;font-feature-settings:normal;text-indent:0;text-align:start;text-decoration:none;text-decoration-line:none;text-decoration-style:solid;text-decoration-color:#000000;letter-spacing:normal;word-spacing:normal;text-transform:none;writing-mode:lr-tb;direction:ltr;text-orientation:mixed;dominant-baseline:auto;baseline-shift:baseline;text-anchor:start;white-space:normal;shape-padding:0;clip-rule:nonzero;display:inline;overflow:visible;visibility:visible;opacity:1;isolation:auto;mix-blend-mode:normal;color-interpolation:sRGB;color-interpolation-filters:linearRGB;solid-color:#000000;solid-opacity:1;vector-effect:none;fill:#000000;fill-opacity:1;fill-rule:nonzero;stroke:none;stroke-width:1.875;stroke-linecap:butt;stroke-linejoin:miter;stroke-miterlimit:4;stroke-dasharray:none;stroke-dashoffset:0;stroke-opacity:1;color-rendering:auto;image-rendering:auto;shape-rendering:auto;text-rendering:auto;enable-background:accumulate"
       d="M 19.046875,296.96094 3.6269531,312.37891 4.953125,313.70508 20.373047,298.28711 Z"
       id="path825"
       inkscape:connector-curvature="0" />
  </g>
</svg>
