<?xml version="1.0" encoding="UTF-8" standalone="no"?>
<!-- Created with Inkscape (http://www.inkscape.org/) -->

<svg
   xmlns:dc="http://purl.org/dc/elements/1.1/"
   xmlns:cc="http://creativecommons.org/ns#"
   xmlns:rdf="http://www.w3.org/1999/02/22-rdf-syntax-ns#"
   xmlns:svg="http://www.w3.org/2000/svg"
   xmlns="http://www.w3.org/2000/svg"
   xmlns:sodipodi="http://sodipodi.sourceforge.net/DTD/sodipodi-0.dtd"
   xmlns:inkscape="http://www.inkscape.org/namespaces/inkscape"
   width="60.295227mm"
   height="48.177753mm"
   viewBox="0 0 60.295227 48.177754"
   version="1.1"
   id="svg1511"
   inkscape:version="0.92.3 (2405546, 2018-03-11)"
   sodipodi:docname="coax.svg">
  <defs
     id="defs1505">
    <marker
       inkscape:isstock="true"
       style="overflow:visible"
       id="marker4857"
       refX="0"
       refY="0"
       orient="auto"
       inkscape:stockid="Arrow1Lend">
      <path
         transform="matrix(-0.8,0,0,-0.8,-10,0)"
         style="fill:#231f20;fill-opacity:1;fill-rule:evenodd;stroke:#231f20;stroke-width:1.00000003pt;stroke-opacity:1"
         d="M 0,0 5,-5 -12.5,0 5,5 Z"
         id="path4855"
         inkscape:connector-curvature="0" />
    </marker>
    <marker
       inkscape:isstock="true"
       style="overflow:visible"
       id="marker4090"
       refX="0"
       refY="0"
       orient="auto"
       inkscape:stockid="Arrow1Lend">
      <path
         transform="matrix(-0.8,0,0,-0.8,-10,0)"
         style="fill:#000000;fill-opacity:1;fill-rule:evenodd;stroke:#000000;stroke-width:1.00000003pt;stroke-opacity:1"
         d="M 0,0 5,-5 -12.5,0 5,5 Z"
         id="path4088"
         inkscape:connector-curvature="0" />
    </marker>
    <marker
       inkscape:stockid="Arrow1Lstart"
       orient="auto"
       refY="0"
       refX="0"
       id="marker3848"
       style="overflow:visible"
       inkscape:isstock="true">
      <path
         id="path3846"
         d="M 0,0 5,-5 -12.5,0 5,5 Z"
         style="fill:#231f20;fill-opacity:1;fill-rule:evenodd;stroke:#231f20;stroke-width:1.00000003pt;stroke-opacity:1"
         transform="matrix(0.8,0,0,0.8,10,0)"
         inkscape:connector-curvature="0" />
    </marker>
    <marker
       inkscape:isstock="true"
       style="overflow:visible"
       id="marker3694"
       refX="0"
       refY="0"
       orient="auto"
       inkscape:stockid="Arrow1Mend">
      <path
         transform="matrix(-0.4,0,0,-0.4,-4,0)"
         style="fill:#000000;fill-opacity:1;fill-rule:evenodd;stroke:#000000;stroke-width:1.00000003pt;stroke-opacity:1"
         d="M 0,0 5,-5 -12.5,0 5,5 Z"
         id="path3692"
         inkscape:connector-curvature="0" />
    </marker>
    <marker
       inkscape:stockid="Arrow1Mstart"
       orient="auto"
       refY="0"
       refX="0"
       id="Arrow1Mstart"
       style="overflow:visible"
       inkscape:isstock="true">
      <path
         id="path2444"
         d="M 0,0 5,-5 -12.5,0 5,5 Z"
         style="fill:#231f20;fill-opacity:1;fill-rule:evenodd;stroke:#231f20;stroke-width:1.00000003pt;stroke-opacity:1"
         transform="matrix(0.4,0,0,0.4,4,0)"
         inkscape:connector-curvature="0" />
    </marker>
    <marker
       inkscape:stockid="Arrow1Mend"
       orient="auto"
       refY="0"
       refX="0"
       id="marker2946"
       style="overflow:visible"
       inkscape:isstock="true">
      <path
         id="path2944"
         d="M 0,0 5,-5 -12.5,0 5,5 Z"
         style="fill:#231f20;fill-opacity:1;fill-rule:evenodd;stroke:#231f20;stroke-width:1.00000003pt;stroke-opacity:1"
         transform="matrix(-0.4,0,0,-0.4,-4,0)"
         inkscape:connector-curvature="0" />
    </marker>
    <marker
       inkscape:stockid="Arrow2Mstart"
       orient="auto"
       refY="0"
       refX="0"
       id="Arrow2Mstart"
       style="overflow:visible"
       inkscape:isstock="true">
      <path
         id="path2462"
         style="fill:#231f20;fill-opacity:1;fill-rule:evenodd;stroke:#231f20;stroke-width:0.625;stroke-linejoin:round;stroke-opacity:1"
         d="M 8.7185878,4.0337352 -2.2072895,0.01601326 8.7185884,-4.0017078 c -1.7454984,2.3720609 -1.7354408,5.6174519 -6e-7,8.035443 z"
         transform="scale(0.6)"
         inkscape:connector-curvature="0" />
    </marker>
    <marker
       inkscape:stockid="Arrow1Lstart"
       orient="auto"
       refY="0"
       refX="0"
       id="Arrow1Lstart"
       style="overflow:visible"
       inkscape:isstock="true">
      <path
         id="path2438"
         d="M 0,0 5,-5 -12.5,0 5,5 Z"
         style="fill:#231f20;fill-opacity:1;fill-rule:evenodd;stroke:#231f20;stroke-width:1.00000003pt;stroke-opacity:1"
         transform="matrix(0.8,0,0,0.8,10,0)"
         inkscape:connector-curvature="0" />
    </marker>
    <marker
       inkscape:stockid="Arrow1Lend"
       orient="auto"
       refY="0"
       refX="0"
       id="Arrow1Lend"
       style="overflow:visible"
       inkscape:isstock="true">
      <path
         id="path2441"
         d="M 0,0 5,-5 -12.5,0 5,5 Z"
         style="fill:#000000;fill-opacity:1;fill-rule:evenodd;stroke:#000000;stroke-width:1.00000003pt;stroke-opacity:1"
         transform="matrix(-0.8,0,0,-0.8,-10,0)"
         inkscape:connector-curvature="0" />
    </marker>
    <clipPath
       id="clipPath1292"
       clipPathUnits="userSpaceOnUse">
      <path
         inkscape:connector-curvature="0"
         id="path1290"
         d="m 4709.95,6430.79 -911.73,495.97 c -111.44,60.62 -185.28,184.68 -184.99,337.83 0.44,237.68 179.34,455.49 399.56,486.44 l 911.73,-495.98 c -220.21,-30.94 -399.11,-248.76 -399.56,-486.43 -0.29,-153.16 73.55,-277.21 184.99,-337.83 z" />
    </clipPath>
    <clipPath
       id="clipPath1278"
       clipPathUnits="userSpaceOnUse">
      <path
         inkscape:connector-curvature="0"
         id="path1276"
         d="m 4225.85,7714.41 c 303.92,-165.33 607.82,-330.65 911.73,-495.98 -61.58,33.5 -134.66,47.64 -213.06,36.62 l -911.73,495.98 c 78.41,11.02 151.47,-3.12 213.06,-36.62 z" />
    </clipPath>
    <clipPath
       id="clipPath1248"
       clipPathUnits="userSpaceOnUse">
      <path
         inkscape:connector-curvature="0"
         id="path1246"
         d="m 4729.17,6466.32 c -303.91,165.33 -607.81,330.65 -911.72,495.98 -101.4,55.16 -168.6,168 -168.34,307.33 0.41,216.24 163.27,414.51 363.6,442.66 l 911.74,-495.97 c -200.34,-28.16 -363.2,-226.42 -363.61,-442.66 -0.26,-139.33 66.94,-252.18 168.33,-307.34 z" />
    </clipPath>
    <clipPath
       id="clipPath1232"
       clipPathUnits="userSpaceOnUse">
      <path
         inkscape:connector-curvature="0"
         id="path1230"
         d="m 4206.52,7678.98 c 303.91,-165.33 607.81,-330.65 911.73,-495.98 -56.03,30.48 -122.49,43.34 -193.8,33.32 l -911.74,495.97 c 71.32,10.02 137.78,-2.84 193.81,-33.31 z" />
    </clipPath>
    <clipPath
       id="clipPath1208"
       clipPathUnits="userSpaceOnUse">
      <path
         inkscape:connector-curvature="0"
         id="path1206"
         d="m 4885.36,6615.29 c -303.92,165.33 -607.82,330.65 -911.74,495.98 -19.85,10.8 -33,32.89 -32.95,60.18 0.08,42.36 31.95,81.16 71.2,86.67 l 911.73,-495.97 c -39.25,-5.51 -71.11,-44.31 -71.19,-86.68 -0.06,-27.28 13.09,-49.38 32.95,-60.18 z" />
    </clipPath>
    <clipPath
       id="clipPath1184"
       clipPathUnits="userSpaceOnUse">
      <path
         inkscape:connector-curvature="0"
         id="path1182"
         d="m 4920.15,6817.93 -911.73,495.97 c -1.89,1.03 -3.16,3.15 -3.16,5.78 0.01,3.98 3.06,7.7 6.74,8.21 l 911.74,-495.97 c -3.7,-0.52 -6.74,-4.23 -6.75,-8.21 0,-2.63 1.27,-4.75 3.16,-5.78 z" />
    </clipPath>
    <clipPath
       id="clipPath1170"
       clipPathUnits="userSpaceOnUse">
      <path
         inkscape:connector-curvature="0"
         id="path1168"
         d="m 4015.65,7327.27 911.74,-495.98 c -1.06,0.58 -2.32,0.82 -3.65,0.63 L 4012,7327.89 c 1.34,0.19 2.59,-0.05 3.65,-0.62 z" />
    </clipPath>
    <clipPath
       id="clipPath1160"
       clipPathUnits="userSpaceOnUse">
      <path
         inkscape:connector-curvature="0"
         id="path1158"
         d="m 5056.62,7183.59 -8.47,5.55 -8.77,5.75 -9.05,5.91 -9.27,6.03 -9.45,6.14 -9.6,6.21 -9.7,6.26 -9.76,6.27 -9.75,6.26 -9.74,6.23 -9.66,6.15 -9.53,6.06 -9.36,5.93 -9.16,5.79 -8.91,5.61 -8.6,5.41 8.6,-5.41 8.91,-5.61 9.16,-5.79 9.36,-5.93 9.53,-6.06 9.66,-6.15 9.74,-6.23 9.75,-6.26 9.76,-6.27 9.7,-6.26 9.6,-6.21 9.45,-6.14 9.27,-6.03 9.05,-5.91 8.77,-5.75 8.47,-5.55 m -455.1,261.43 16.05,-8.74 16.64,-9.05 17.12,-9.31 17.54,-9.54 17.86,-9.72 18.11,-9.86 18.27,-9.93 18.36,-9.99 18.35,-9.98 18.27,-9.94 18.11,-9.85 17.85,-9.71 17.53,-9.54 17.13,-9.31 16.62,-9.05 16.05,-8.73 -16.05,8.73 -16.62,9.05 -17.13,9.31 -17.53,9.54 -17.85,9.71 -18.11,9.85 -18.27,9.94 -18.35,9.98 -18.36,9.99 -18.27,9.93 -18.11,9.86 -17.86,9.72 -17.54,9.54 -17.12,9.31 -16.64,9.05 -16.05,8.74 m -22.81,13 -5.72,2.41 -5.93,2.49 -6.12,2.55 -6.28,2.6 -6.39,2.64 -6.5,2.67 -6.56,2.67 -6.61,2.68 -6.61,2.66 -6.59,2.65 -6.56,2.6 -6.46,2.57 -6.36,2.5 -6.21,2.44 -6.06,2.36 -5.83,2.27 5.83,-2.27 6.06,-2.36 6.21,-2.44 6.36,-2.5 6.46,-2.57 6.56,-2.6 6.59,-2.65 6.61,-2.66 6.61,-2.68 6.56,-2.67 6.5,-2.67 6.39,-2.64 6.28,-2.6 6.12,-2.55 5.93,-2.49 5.72,-2.41 m -141.53,7.7 17.15,-9.04 17.75,-9.35 18.29,-9.63 18.71,-9.86 19.07,-10.05 19.33,-10.19 19.5,-10.28 19.59,-10.32 19.58,-10.32 19.5,-10.28 19.33,-10.19 19.06,-10.05 18.71,-9.87 18.27,-9.63 17.75,-9.36 17.14,-9.04 -17.14,9.04 -17.75,9.36 -18.27,9.63 -18.71,9.87 -19.06,10.05 -19.33,10.19 -19.5,10.28 -19.58,10.32 -19.59,10.32 -19.5,10.28 -19.33,10.19 -19.07,10.05 -18.71,9.86 -18.29,9.63 -17.75,9.35 -17.15,9.04 m 760.66,-533.96 1.77,2.87 1.8,2.95 1.82,3.02 1.82,3.08 1.82,3.11 1.8,3.15 1.76,3.15 1.73,3.14 1.69,3.13 1.63,3.09 1.59,3.03 1.51,2.99 1.45,2.91 1.38,2.81 1.3,2.72 1.22,2.61 -1.22,-2.61 -1.3,-2.72 -1.38,-2.81 -1.45,-2.91 -1.51,-2.99 -1.59,-3.03 -1.63,-3.09 -1.69,-3.13 -1.73,-3.14 -1.76,-3.15 -1.8,-3.15 -1.82,-3.11 -1.82,-3.08 -1.82,-3.02 -1.8,-2.95 -1.77,-2.87 m 6.73,-4.26 -42.9,23.34 -44.44,24.17 -45.74,24.89 -46.85,25.48 -47.72,25.96 -48.38,26.32 -48.81,26.55 -49.04,26.67 -49.03,26.68 -48.82,26.56 -48.37,26.31 -47.73,25.96 -46.84,25.49 -45.74,24.88 -44.44,24.17 -42.9,23.34 42.9,-23.34 44.44,-24.17 45.74,-24.88 46.84,-25.49 47.73,-25.96 48.37,-26.31 48.82,-26.56 49.03,-26.68 49.04,-26.67 48.81,-26.55 48.38,-26.32 47.72,-25.96 46.85,-25.48 45.74,-24.89 44.44,-24.17 42.9,-23.34 m -771.58,481.7 44.93,-24.44 46.53,-25.31 47.91,-26.07 49.05,-26.68 49.97,-27.18 50.66,-27.56 51.11,-27.8 51.35,-27.94 51.34,-27.93 51.12,-27.81 50.65,-27.55 49.97,-27.19 49.06,-26.68 47.91,-26.06 46.53,-25.31 44.92,-24.44 -44.92,24.44 -46.53,25.31 -47.91,26.06 -49.06,26.68 -49.97,27.19 -50.65,27.55 -51.12,27.81 -51.34,27.93 -51.35,27.94 -51.11,27.8 -50.66,27.56 -49.97,27.18 -49.05,26.68 -47.91,26.07 -46.53,25.31 -44.93,24.44 m -0.56,0.35 2.09,-4.38 2.14,-4.56 2.16,-4.72 2.18,-4.84 2.18,-4.96 2.17,-5.04 2.14,-5.12 2.1,-5.15 2.08,-5.17 2.01,-5.17 1.95,-5.14 1.89,-5.09 1.81,-5.01 1.73,-4.92 1.65,-4.79 1.55,-4.64 -1.55,4.64 -1.65,4.79 -1.73,4.92 -1.81,5.01 -1.89,5.09 -1.95,5.14 -2.01,5.17 -2.08,5.17 -2.1,5.15 -2.14,5.12 -2.17,5.04 -2.18,4.96 -2.18,4.84 -2.16,4.72 -2.14,4.56 -2.09,4.38 m -51.14,-124.21 0.67,4.45 0.65,4.62 0.62,4.77 0.58,4.89 0.54,5 0.5,5.07 0.44,5.13 0.39,5.18 0.32,5.17 0.26,5.17 0.22,5.12 0.15,5.07 0.08,4.98 0.03,4.86 -0.01,4.74 -0.06,4.58 0.06,-4.58 0.01,-4.74 -0.03,-4.86 -0.08,-4.98 -0.15,-5.07 -0.22,-5.12 -0.26,-5.17 -0.32,-5.17 -0.39,-5.18 -0.44,-5.13 -0.5,-5.07 -0.54,-5 -0.58,-4.89 -0.62,-4.77 -0.65,-4.62 -0.67,-4.45 m 892.37,-403.84 -50.82,27.64 -52.65,28.64 -54.19,29.48 -55.49,30.19 -56.53,30.75 -57.31,31.18 -57.83,31.46 -58.08,31.6 -58.09,31.6 -57.82,31.46 -57.32,31.17 -56.52,30.76 -55.5,30.19 -54.19,29.48 -52.63,28.64 -50.82,27.65 50.82,-27.65 52.63,-28.64 54.19,-29.48 55.5,-30.19 56.52,-30.76 57.32,-31.17 57.82,-31.46 58.09,-31.6 58.08,-31.6 57.83,-31.46 57.31,-31.18 56.53,-30.75 55.49,-30.19 54.19,-29.48 52.65,-28.64 50.82,-27.64 m -6.17,-78.4 0.78,4.4 0.77,4.56 0.74,4.7 0.71,4.84 0.67,4.93 0.62,5.02 0.57,5.07 0.52,5.11 0.45,5.12 0.4,5.1 0.33,5.08 0.26,5.01 0.21,4.92 0.15,4.82 0.1,4.68 0.04,4.53 -0.04,-4.53 -0.1,-4.68 -0.15,-4.82 -0.21,-4.92 -0.26,-5.01 -0.33,-5.08 -0.4,-5.1 -0.45,-5.12 -0.52,-5.11 -0.57,-5.07 -0.62,-5.02 -0.67,-4.93 -0.71,-4.84 -0.74,-4.7 -0.77,-4.56 -0.78,-4.4 m -936.07,749.01 c -29.53,54.74 -72.67,98.45 -124.9,126.86 L 5118.25,7183 c 51.3,-27.91 93.83,-70.58 123.32,-123.97 -137.72,74.91 -275.41,149.82 -413.13,224.74 137.72,-74.92 275.41,-149.83 413.13,-224.74 28.81,-52.15 45.14,-114.54 45.02,-183.37 -0.05,-27.05 -2.64,-53.81 -7.52,-80 -303.93,165.33 -607.82,330.65 -911.74,495.98 4.88,26.18 7.47,52.94 7.53,79.99 0.12,67.57 -15.63,128.91 -43.44,180.48 137.15,-71.27 137.15,-71.27 298.19,-155.14 -49.68,25.88 -99.36,51.75 -149.06,77.61 -25.78,13.42 -51.56,26.82 -77.35,40.23 -11.09,5.76 -25.86,13.44 -36.94,19.2 -10.45,5.43 -26.45,9.83 -34.84,18.1 z" />
    </clipPath>
    <clipPath
       id="clipPath1132"
       clipPathUnits="userSpaceOnUse">
      <path
         inkscape:connector-curvature="0"
         id="path1130"
         d="m 4018.79,7321.59 c 0,2.55 -1.25,4.64 -3.14,5.68 l 911.74,-495.98 c 1.88,-1.03 3.14,-3.12 3.13,-5.67 -0.01,-4.07 -3.05,-7.78 -6.81,-8.31 -1.27,-0.18 -2.46,0.04 -3.48,0.58 -2.16,1.16 -4.31,2.34 -6.46,3.5 -301.76,164.16 -514.2,492.47 -905.27,492.47 1.02,-0.53 2.21,-0.76 3.48,-0.58 3.76,0.53 6.8,4.24 6.81,8.31 z" />
    </clipPath>
    <clipPath
       id="clipPath1118"
       clipPathUnits="userSpaceOnUse">
      <path
         inkscape:connector-curvature="0"
         id="path1116"
         d="m 3817.45,6962.3 c 56.02,-30.48 122.51,-43.35 193.8,-33.33 L 4922.99,6433 c -71.31,-10.02 -137.78,2.85 -193.82,33.32 -273.52,148.8 -638.21,347.19 -911.72,495.98 z" />
    </clipPath>
    <clipPath
       id="clipPath1104"
       clipPathUnits="userSpaceOnUse">
      <path
         inkscape:connector-curvature="0"
         id="path1102"
         d="m 4049.89,7251.59 c 303.91,-165.34 607.81,-330.65 911.73,-495.98 -10.99,5.98 -24.04,8.51 -38.02,6.54 l -911.73,495.97 c 13.98,1.97 27.03,-0.56 38.02,-6.53 z" />
    </clipPath>
    <clipPath
       id="clipPath1080"
       clipPathUnits="userSpaceOnUse">
      <path
         inkscape:connector-curvature="0"
         id="path1078"
         d="m 4082.87,7191.43 c 0.05,27.27 -13.12,49.35 -32.98,60.16 l 911.73,-495.98 c 19.86,-10.8 33.02,-32.88 32.97,-60.15 -0.07,-42.37 -32.03,-81.17 -71.27,-86.69 l -911.73,495.97 c 39.24,5.52 71.19,44.33 71.28,86.69 z" />
    </clipPath>
    <clipPath
       id="clipPath1068"
       clipPathUnits="userSpaceOnUse">
      <path
         inkscape:connector-curvature="0"
         id="path1066"
         d="m 3976.85,7109.63 c 2.29,-1.06 4.65,-1.98 7.08,-2.75 303.92,-165.33 607.81,-330.65 911.74,-495.97 -3.6,1.14 -7.05,2.61 -10.32,4.38 -746.93,405.59 -752.02,408.68 -758.45,412.6 -50.03,27.22 -100.04,54.47 -150.05,81.74 z" />
    </clipPath>
    <clipPath
       id="clipPath1056"
       clipPathUnits="userSpaceOnUse">
      <path
         inkscape:connector-curvature="0"
         id="path1054"
         d="m 3983.93,7106.88 c 8.5,-2.68 17.84,-3.51 27.66,-2.14 l 911.73,-495.97 c -9.82,-1.38 -19.16,-0.55 -27.65,2.14 -303.93,165.32 -607.82,330.64 -911.74,495.97 z" />
    </clipPath>
    <clipPath
       id="clipPath1032"
       clipPathUnits="userSpaceOnUse">
      <path
         inkscape:connector-curvature="0"
         id="path1030"
         d="m 4418.99,7258.56 46.77,-25.4 48.44,-26.3 49.88,-27.09 51.06,-27.73 52.02,-28.25 52.75,-28.64 53.21,-28.9 53.46,-29.02 53.45,-29.03 53.22,-28.9 52.74,-28.64 52.02,-28.25 51.07,-27.73 49.87,-27.08 48.44,-26.31 46.78,-25.4 -46.78,25.4 -48.44,26.31 -49.87,27.08 -51.07,27.73 -52.02,28.25 -52.74,28.64 -53.22,28.9 -53.45,29.03 -53.46,29.02 -53.21,28.9 -52.75,28.64 -52.02,28.25 -51.06,27.73 -49.88,27.09 -48.44,26.3 -46.77,25.4 m 783.52,-503.75 1.33,3.75 1.36,3.89 1.35,4.03 1.35,4.13 1.33,4.22 1.32,4.3 1.28,4.35 1.24,4.39 1.21,4.4 1.15,4.39 1.11,4.37 1.04,4.32 0.99,4.25 0.92,4.17 0.86,4.05 0.79,3.92 -0.79,-3.92 -0.86,-4.05 -0.92,-4.17 -0.99,-4.25 -1.04,-4.32 -1.11,-4.37 -1.15,-4.39 -1.21,-4.4 -1.24,-4.39 -1.28,-4.35 -1.32,-4.3 -1.33,-4.22 -1.35,-4.13 -1.35,-4.03 -1.36,-3.89 -1.33,-3.75 m -722.3,228.8 1.19,2.19 1.22,2.28 1.24,2.36 1.27,2.43 1.27,2.48 1.28,2.53 1.27,2.56 1.27,2.58 1.25,2.6 1.24,2.59 1.21,2.58 1.17,2.55 1.16,2.53 1.1,2.47 1.06,2.4 1.02,2.33 -1.02,-2.33 -1.06,-2.4 -1.1,-2.47 -1.16,-2.53 -1.17,-2.55 -1.21,-2.58 -1.24,-2.59 -1.25,-2.6 -1.27,-2.58 -1.27,-2.56 -1.28,-2.53 -1.27,-2.48 -1.27,-2.43 -1.24,-2.36 -1.22,-2.28 -1.19,-2.19 m 528.68,-238.72 -28.65,15.59 -29.68,16.14 -30.55,16.62 -31.28,17.02 -31.87,17.34 -32.3,17.57 -32.61,17.74 -32.75,17.81 -32.74,17.82 -32.61,17.73 -32.3,17.57 -31.87,17.34 -31.29,17.02 -30.54,16.62 -29.68,16.14 -28.65,15.59 28.65,-15.59 29.68,-16.14 30.54,-16.62 31.29,-17.02 31.87,-17.34 32.3,-17.57 32.61,-17.73 32.74,-17.82 32.75,-17.81 32.61,-17.74 32.3,-17.57 31.87,-17.34 31.28,-17.02 30.55,-16.62 29.68,-16.14 28.65,-15.59 m -10.25,-44.26 -29.43,16.08 -30.46,16.67 -31.38,17.15 -32.12,17.57 -32.74,17.9 -33.17,18.14 -33.48,18.31 -33.63,18.39 -33.62,18.39 -33.49,18.31 -33.17,18.14 -32.73,17.9 -32.12,17.57 -31.37,17.16 -30.47,16.67 -29.42,16.09 29.42,-16.09 30.47,-16.67 31.37,-17.16 32.12,-17.57 32.73,-17.9 33.17,-18.14 33.49,-18.31 33.62,-18.39 33.63,-18.39 33.48,-18.31 33.17,-18.14 32.74,-17.9 32.12,-17.57 31.38,-17.15 30.46,-16.67 29.43,-16.08 m -7.73,4.96 1.53,2 1.57,2.08 1.6,2.15 1.63,2.22 1.65,2.27 1.66,2.31 1.65,2.34 1.65,2.37 1.64,2.37 1.61,2.38 1.6,2.36 1.55,2.35 1.5,2.31 1.47,2.26 1.4,2.21 1.35,2.14 -1.35,-2.14 -1.4,-2.21 -1.47,-2.26 -1.5,-2.31 -1.55,-2.35 -1.6,-2.36 -1.61,-2.38 -1.64,-2.37 -1.65,-2.37 -1.65,-2.34 -1.66,-2.31 -1.65,-2.27 -1.63,-2.22 -1.6,-2.15 -1.57,-2.08 -1.53,-2 m -554.32,468.89 42.64,-23.23 44.17,-24.08 45.47,-24.78 46.57,-25.37 47.44,-25.85 48.08,-26.21 48.53,-26.44 48.74,-26.56 48.74,-26.57 48.52,-26.44 48.09,-26.21 47.43,-25.85 46.56,-25.38 45.48,-24.79 44.17,-24.07 42.65,-23.24 -42.65,23.24 -44.17,24.07 -45.48,24.79 -46.56,25.38 -47.43,25.85 -48.09,26.21 -48.52,26.44 -48.74,26.57 -48.74,26.56 -48.53,26.44 -48.08,26.21 -47.44,25.85 -46.57,25.37 -45.47,24.78 -44.17,24.08 -42.64,23.23 m -5.19,76.12 -0.78,-3.85 -0.85,-3.97 -0.91,-4.08 -0.96,-4.17 -1.04,-4.24 -1.07,-4.27 -1.14,-4.31 -1.18,-4.31 -1.22,-4.3 -1.26,-4.26 -1.28,-4.21 -1.31,-4.14 -1.32,-4.05 -1.31,-3.94 -1.32,-3.81 -1.3,-3.67 1.3,3.67 1.32,3.81 1.31,3.94 1.32,4.05 1.31,4.14 1.28,4.21 1.26,4.26 1.22,4.3 1.18,4.31 1.14,4.31 1.07,4.27 1.04,4.24 0.96,4.17 0.91,4.08 0.85,3.97 0.78,3.85 m -420.15,-321.63 c 175.37,24.65 321.91,179.44 356.08,362.67 303.92,-165.33 607.81,-330.65 911.74,-495.98 -34.18,-183.22 -180.73,-338.01 -356.08,-362.66 -273.52,148.79 -638.21,347.18 -911.74,495.97 z" />
    </clipPath>
    <marker
       inkscape:stockid="Arrow1Lend"
       orient="auto"
       refY="0"
       refX="0"
       id="marker3924-2"
       style="overflow:visible"
       inkscape:isstock="true">
      <path
         inkscape:connector-curvature="0"
         id="path3922-5"
         d="M 0,0 5,-5 -12.5,0 5,5 Z"
         style="fill:#231f20;fill-opacity:1;fill-rule:evenodd;stroke:#231f20;stroke-width:1.00000003pt;stroke-opacity:1"
         transform="matrix(-0.8,0,0,-0.8,-10,0)" />
    </marker>
  </defs>
  <sodipodi:namedview
     id="base"
     pagecolor="#ffffff"
     bordercolor="#666666"
     borderopacity="1.0"
     inkscape:pageopacity="0.0"
     inkscape:pageshadow="2"
     inkscape:zoom="2"
     inkscape:cx="253.78579"
     inkscape:cy="-27.450575"
     inkscape:document-units="mm"
     inkscape:current-layer="layer1"
     showgrid="false" />
  <metadata
     id="metadata1508">
    <rdf:RDF>
      <cc:Work
         rdf:about="">
        <dc:format>image/svg+xml</dc:format>
        <dc:type
           rdf:resource="http://purl.org/dc/dcmitype/StillImage" />
        <dc:title />
      </cc:Work>
    </rdf:RDF>
  </metadata>
  <g
     inkscape:label="Layer 1"
     inkscape:groupmode="layer"
     id="layer1"
     transform="translate(-50.404732,-171.85758)">
    <path
       inkscape:connector-curvature="0"
       id="path1240"
       style="fill:#ffcc80;fill-opacity:1;fill-rule:nonzero;stroke:none;stroke-width:0.03527778"
       d="m 96.625829,206.92428 c 1.38367,-0.19473 2.504779,0.85832 2.501965,2.35269 -0.0021,1.49473 -1.128865,2.86352 -2.511834,3.05825 -1.383318,0.19474 -2.501964,-0.85867 -2.499147,-2.35304 0.003,-1.49473 1.125688,-2.86352 2.509016,-3.0579" />
    <path
       inkscape:connector-curvature="0"
       id="path1266"
       style="fill:#e0e0e0;fill-opacity:1;fill-rule:nonzero;stroke:none;stroke-width:0.03527778"
       d="m 96.630853,204.4629 c -0.13053,0.0184 -0.23778,0.14922 -0.23813,0.28963 -2.6e-4,0.14323 0.10654,0.24412 0.23707,0.22578 0.13264,-0.0187 0.23989,-0.14958 0.24024,-0.29316 2.7e-4,-0.14041 -0.10654,-0.24095 -0.23918,-0.22225 m -0.0148,7.87223 c 1.3843,-0.19473 2.51178,-1.56351 2.51425,-3.05823 0.003,-1.49436 -1.11937,-2.5474 -2.50437,-2.35267 -1.38466,0.19438 -2.50861,1.56316 -2.51143,3.05788 -0.003,1.49436 1.1169,2.54776 2.50155,2.35302 m 0.0399,-21.43301 c 7.070017,-0.99342 12.789607,4.38961 12.775497,12.01773 -0.0141,7.63129 -5.75698,14.62228 -12.826997,15.61606 -7.06755,0.99342 -12.79031,-4.38644 -12.77585,-12.01773 0.0145,-7.62846 5.7598,-14.62264 12.82735,-15.61606" />
    <g
       aria-label="substrate"
       style="font-style:normal;font-variant:normal;font-weight:normal;font-stretch:normal;font-size:4.02322578px;line-height:1.25;font-family:'Times New Roman';-inkscape-font-specification:'Times New Roman, ';letter-spacing:0px;word-spacing:0px;fill:#bdbdbd;fill-opacity:1;stroke:none;stroke-width:0.26458332"
       id="text1203">
      <path
         d="m 89.9479,197.49485 q 0,0.31381 -0.233347,0.47474 -0.233347,0.16093 -0.627623,0.16093 -0.225301,0 -0.390253,-0.0362 -0.160929,-0.0362 -0.285649,-0.10058 v -0.32186 q 0.128743,0.0644 0.309788,0.1207 0.185069,0.0523 0.37416,0.0523 0.269557,0 0.390253,-0.0845 0.120697,-0.0885 0.120697,-0.23335 0,-0.0805 -0.04425,-0.14483 -0.04426,-0.0644 -0.160929,-0.12874 -0.112651,-0.0644 -0.325882,-0.14484 -0.209207,-0.0805 -0.358067,-0.16093 -0.148859,-0.0805 -0.229324,-0.19311 -0.08046,-0.11266 -0.08046,-0.28968 0,-0.27358 0.221277,-0.42244 0.225301,-0.14886 0.587391,-0.14886 0.197138,0 0.366114,0.0402 0.172999,0.0402 0.321858,0.1046 l -0.120697,0.28163 q -0.13679,-0.0563 -0.285649,-0.0966 -0.148859,-0.0402 -0.305765,-0.0402 -0.217254,0 -0.333928,0.0724 -0.11265,0.0684 -0.11265,0.18909 0,0.0925 0.0523,0.15288 0.0523,0.0603 0.172998,0.1207 0.12472,0.0603 0.329905,0.13679 0.205185,0.0764 0.350021,0.1569 0.144836,0.0805 0.221277,0.19714 0.07644,0.11265 0.07644,0.28565 z"
         style="font-style:normal;font-variant:normal;font-weight:normal;font-stretch:normal;font-family:'Noto Sans';-inkscape-font-specification:'Noto Sans';fill:#bdbdbd;fill-opacity:1;stroke-width:0.26458332"
         id="path1256"
         inkscape:connector-curvature="0" />
      <path
         d="m 92.271376,195.93384 v 2.15645 h -0.289672 l -0.0523,-0.28565 h -0.01609 q -0.104604,0.16897 -0.289672,0.24944 -0.185069,0.0764 -0.394276,0.0764 -0.390253,0 -0.587391,-0.18507 -0.197138,-0.18909 -0.197138,-0.59946 v -1.41215 h 0.358067 v 1.38801 q 0,0.51497 0.478764,0.51497 0.358067,0 0.494856,-0.20116 0.140813,-0.20116 0.140813,-0.57934 v -1.12248 z"
         style="font-style:normal;font-variant:normal;font-weight:normal;font-stretch:normal;font-family:'Noto Sans';-inkscape-font-specification:'Noto Sans';fill:#bdbdbd;fill-opacity:1;stroke-width:0.26458332"
         id="path1258"
         inkscape:connector-curvature="0" />
      <path
         d="m 93.3061,195.03263 v 0.7443 q 0,0.13679 -0.008,0.25749 -0.004,0.11667 -0.01207,0.18507 h 0.02012 q 0.09253,-0.13679 0.253463,-0.22933 0.160929,-0.0925 0.414392,-0.0925 0.402323,0 0.643716,0.28162 0.245417,0.27761 0.245417,0.83281 0,0.55521 -0.245417,0.83683 -0.245416,0.28163 -0.643716,0.28163 -0.253463,0 -0.414392,-0.0925 -0.160929,-0.0925 -0.253463,-0.22127 h -0.02816 l -0.07242,0.27358 h -0.253463 v -3.05766 z m 0.607507,1.15869 q -0.345998,0 -0.478764,0.19714 -0.128743,0.19714 -0.128743,0.61153 v 0.0161 q 0,0.3983 0.128743,0.61154 0.132766,0.2092 0.48681,0.2092 0.289673,0 0.430485,-0.21323 0.144837,-0.21323 0.144837,-0.61555 0,-0.81672 -0.583368,-0.81672 z"
         style="font-style:normal;font-variant:normal;font-weight:normal;font-stretch:normal;font-family:'Noto Sans';-inkscape-font-specification:'Noto Sans';fill:#bdbdbd;fill-opacity:1;stroke-width:0.26458332"
         id="path1260"
         inkscape:connector-curvature="0" />
      <path
         d="m 96.831388,197.49485 q 0,0.31381 -0.233347,0.47474 -0.233347,0.16093 -0.627623,0.16093 -0.225301,0 -0.390253,-0.0362 -0.160929,-0.0362 -0.285649,-0.10058 v -0.32186 q 0.128743,0.0644 0.309788,0.1207 0.185069,0.0523 0.37416,0.0523 0.269556,0 0.390253,-0.0845 0.120697,-0.0885 0.120697,-0.23335 0,-0.0805 -0.04426,-0.14483 -0.04426,-0.0644 -0.160929,-0.12874 -0.11265,-0.0644 -0.325881,-0.14484 -0.209208,-0.0805 -0.358067,-0.16093 -0.148859,-0.0805 -0.229324,-0.19311 -0.08046,-0.11266 -0.08046,-0.28968 0,-0.27358 0.221277,-0.42244 0.225301,-0.14886 0.587391,-0.14886 0.197138,0 0.366114,0.0402 0.172998,0.0402 0.321858,0.1046 l -0.120697,0.28163 q -0.13679,-0.0563 -0.285649,-0.0966 -0.14886,-0.0402 -0.305765,-0.0402 -0.217255,0 -0.333928,0.0724 -0.11265,0.0684 -0.11265,0.18909 0,0.0925 0.0523,0.15288 0.0523,0.0603 0.172999,0.1207 0.12472,0.0603 0.329905,0.13679 0.205184,0.0764 0.35002,0.1569 0.144836,0.0805 0.221278,0.19714 0.07644,0.11265 0.07644,0.28565 z"
         style="font-style:normal;font-variant:normal;font-weight:normal;font-stretch:normal;font-family:'Noto Sans';-inkscape-font-specification:'Noto Sans';fill:#bdbdbd;fill-opacity:1;stroke-width:0.26458332"
         id="path1262"
         inkscape:connector-curvature="0" />
      <path
         d="m 98.072616,197.84085 q 0.08047,0 0.164953,-0.0121 0.08449,-0.0121 0.136789,-0.0322 v 0.26956 q -0.05633,0.0282 -0.160929,0.0443 -0.104604,0.0201 -0.201161,0.0201 -0.168976,0 -0.313812,-0.0563 -0.140813,-0.0603 -0.229324,-0.20518 -0.08851,-0.14484 -0.08851,-0.40635 v -1.25524 h -0.305765 v -0.16898 l 0.309789,-0.14081 0.140813,-0.45865 h 0.209207 v 0.49486 h 0.6236 v 0.27358 h -0.6236 v 1.2472 q 0,0.19713 0.09253,0.29369 0.09656,0.0925 0.245416,0.0925 z"
         style="font-style:normal;font-variant:normal;font-weight:normal;font-stretch:normal;font-family:'Noto Sans';-inkscape-font-specification:'Noto Sans';fill:#bdbdbd;fill-opacity:1;stroke-width:0.26458332"
         id="path1264"
         inkscape:connector-curvature="0" />
      <path
         d="m 99.81197,195.8936 q 0.06035,0 0.128743,0.008 0.0684,0.004 0.124717,0.0161 l -0.0443,0.32589 q -0.0523,-0.0121 -0.116676,-0.0201 -0.06437,-0.008 -0.116673,-0.008 -0.164952,0 -0.309789,0.0925 -0.144836,0.0885 -0.233347,0.25346 -0.08449,0.16093 -0.08449,0.37818 v 1.15065 h -0.354044 v -2.15645 h 0.289672 l 0.04023,0.39427 h 0.01609 q 0.100581,-0.17702 0.265533,-0.30576 0.168976,-0.12875 0.394276,-0.12875 z"
         style="font-style:normal;font-variant:normal;font-weight:normal;font-stretch:normal;font-family:'Noto Sans';-inkscape-font-specification:'Noto Sans';fill:#bdbdbd;fill-opacity:1;stroke-width:0.26458332"
         id="path1267"
         inkscape:connector-curvature="0" />
      <path
         d="m 101.20231,195.89763 q 0.39428,0 0.58337,0.173 0.18909,0.173 0.18909,0.55118 v 1.46848 h -0.25749 l -0.0684,-0.30577 h -0.0161 q -0.14081,0.17702 -0.29771,0.26151 -0.15691,0.0845 -0.42647,0.0845 -0.29369,0 -0.48681,-0.15288 -0.19311,-0.15691 -0.19311,-0.48681 0,-0.32186 0.25346,-0.49486 0.25346,-0.17702 0.78051,-0.19312 l 0.36611,-0.0121 v -0.12874 q 0,-0.26956 -0.11667,-0.37416 -0.11668,-0.1046 -0.32991,-0.1046 -0.16897,0 -0.32186,0.0523 -0.15288,0.0483 -0.28564,0.11265 l -0.10863,-0.26553 q 0.14081,-0.0764 0.33393,-0.12875 0.19311,-0.0563 0.40232,-0.0563 z m 0.42244,1.13857 -0.31784,0.0121 q -0.40232,0.0161 -0.55923,0.12874 -0.15288,0.11265 -0.15288,0.31784 0,0.18104 0.10863,0.26553 0.11265,0.0845 0.28565,0.0845 0.26955,0 0.4506,-0.14886 0.18507,-0.15288 0.18507,-0.46669 z"
         style="font-style:normal;font-variant:normal;font-weight:normal;font-stretch:normal;font-family:'Noto Sans';-inkscape-font-specification:'Noto Sans';fill:#bdbdbd;fill-opacity:1;stroke-width:0.26458332"
         id="path1269"
         inkscape:connector-curvature="0" />
      <path
         d="m 103.36096,197.84085 q 0.0805,0 0.16495,-0.0121 0.0845,-0.0121 0.13679,-0.0322 v 0.26956 q -0.0563,0.0282 -0.16093,0.0443 -0.1046,0.0201 -0.20116,0.0201 -0.16898,0 -0.31381,-0.0563 -0.14082,-0.0603 -0.22933,-0.20518 -0.0885,-0.14484 -0.0885,-0.40635 v -1.25524 h -0.30576 v -0.16898 l 0.30979,-0.14081 0.14081,-0.45865 h 0.20921 v 0.49486 h 0.6236 v 0.27358 h -0.6236 v 1.2472 q 0,0.19713 0.0925,0.29369 0.0966,0.0925 0.24542,0.0925 z"
         style="font-style:normal;font-variant:normal;font-weight:normal;font-stretch:normal;font-family:'Noto Sans';-inkscape-font-specification:'Noto Sans';fill:#bdbdbd;fill-opacity:1;stroke-width:0.26458332"
         id="path1271"
         inkscape:connector-curvature="0" />
      <path
         d="m 104.92731,195.8936 q 0.27358,0 0.47474,0.1207 0.20116,0.1207 0.30577,0.34198 0.10863,0.21725 0.10863,0.51095 v 0.21323 h -1.47653 q 0.008,0.36611 0.18507,0.55922 0.18105,0.1891 0.5029,0.1891 0.20519,0 0.36209,-0.0362 0.16093,-0.0402 0.32991,-0.11265 v 0.30979 q -0.16495,0.0724 -0.32588,0.1046 -0.16093,0.0362 -0.38221,0.0362 -0.30979,0 -0.54313,-0.12472 -0.23335,-0.12472 -0.36612,-0.37014 -0.12874,-0.24542 -0.12874,-0.60751 0,-0.35404 0.11667,-0.6075 0.1207,-0.25347 0.33393,-0.39026 0.21725,-0.13679 0.5029,-0.13679 z m -0.004,0.28968 q -0.25346,0 -0.40232,0.16495 -0.14484,0.16093 -0.173,0.4506 h 1.09834 q -0.004,-0.27358 -0.12874,-0.44255 -0.12472,-0.173 -0.39428,-0.173 z"
         style="font-style:normal;font-variant:normal;font-weight:normal;font-stretch:normal;font-family:'Noto Sans';-inkscape-font-specification:'Noto Sans';fill:#bdbdbd;fill-opacity:1;stroke-width:0.26458332"
         id="path1273"
         inkscape:connector-curvature="0" />
    </g>
    <path
       inkscape:connector-curvature="0"
       id="path1268"
       style="fill:#ffcc80;fill-opacity:1;fill-rule:nonzero;stroke:none;stroke-width:0.03527778"
       d="m 96.604312,218.53598 c -7.06755,0.99342 -12.79031,-4.38644 -12.7762,-12.01773 0.01479,-7.62811 5.760151,-14.62264 12.827701,-15.61606 7.070017,-0.99342 12.789607,4.38961 12.775497,12.01773 -0.0141,7.63129 -5.75698,14.62228 -12.826998,15.61606 m 0.054,-29.0001 c -7.768522,1.0915 -14.07971,8.7757 -14.09559,17.16017 -0.0155,8.388 6.27063,14.30126 14.039149,13.20942 7.771339,-1.0922 14.082539,-8.77606 14.098059,-17.16371 0.0155,-8.38482 -6.27063,-14.29808 -14.041618,-13.20588" />
    <path
       inkscape:connector-curvature="0"
       id="path1270"
       style="fill:#231f20;fill-opacity:1;fill-rule:nonzero;stroke:none;stroke-width:0.03527778"
       d="m 96.630413,204.46297 c -0.0324,0.005 -0.0635,0.0162 -0.0921,0.0332 -0.007,0.005 -0.01381,0.009 -0.0208,0.0138 -0.0741,0.054 -0.124529,0.14605 -0.12488,0.24271 0,0.0984 0.0501,0.17674 0.124182,0.21061 0.0011,2.6e-4 0.003,0.001 0.005,0.001 0.008,0.004 0.01799,0.007 0.0272,0.009 0.009,0.002 0.0176,0.004 0.0265,0.005 0.003,2.6e-4 0.005,0.001 0.008,0.001 0.01521,0.001 0.0307,7.9e-4 0.0466,-0.001 0.132638,-0.0187 0.239889,-0.14958 0.240239,-0.29316 0,-0.0656 -0.0236,-0.12277 -0.0624,-0.16263 -0.0438,-0.0455 -0.106539,-0.0695 -0.177101,-0.0596" />
    <path
       style="fill:#ffa726;fill-opacity:1;fill-rule:nonzero;stroke:none;stroke-width:0.035;stroke-miterlimit:4;stroke-dasharray:none;stroke-opacity:1"
       d="m 66.849752,171.85759 c -0.735469,-10e-4 -1.495287,0.0757 -2.350244,0.19585 -1.430161,0.20108 -2.810686,0.6256 -4.111377,1.23662 -0.793751,0.37253 -1.557704,0.81469 -2.285132,1.31775 -0.592666,0.40993 -1.160732,0.86021 -1.701188,1.34669 -0.503766,0.45297 -0.982957,0.93781 -1.435571,1.45004 -0.449792,0.50941 -0.872725,1.04622 -1.266073,1.60714 -0.416983,0.59443 -0.800108,1.21533 -1.146183,1.8588 -0.409222,0.76024 -0.765706,1.55132 -1.065568,2.36729 -0.694619,1.89125 -1.080154,3.91228 -1.083654,5.97638 -0.01023,5.40279 2.59486,9.77961 6.526216,11.91814 l 32.163411,17.49661 c -3.931356,-2.13854 -6.53593,-6.51499 -6.5257,-11.91814 0.0039,-2.06375 0.389035,-4.08514 1.083655,-5.97638 h -5.17e-4 c 0.299508,-0.81527 0.657215,-1.60706 1.066085,-2.3673 0.346075,-0.64346 0.729552,-1.26437 1.146183,-1.8588 0.393347,-0.56092 0.815928,-1.09773 1.266073,-1.60714 0.451908,-0.51223 0.931451,-0.99672 1.435571,-1.45004 h 5.17e-4 c 0.539997,-0.48638 1.107613,-0.93665 1.700155,-1.34617 h 5.16e-4 c 0.727322,-0.50296 1.490994,-0.94579 2.284615,-1.31826 1.301397,-0.61102 2.681733,-1.03537 4.111894,-1.2361 1.709914,-0.24058 3.051109,-0.17474 4.571784,0.17122 v 0 c 0.77611,0.19967 1.49178,0.41597 2.20661,0.74344 L 71.278422,172.95571 c -0.704498,-0.34572 -1.448042,-0.62146 -2.224153,-0.82113 -0.75759,-0.19506 -1.469047,-0.27553 -2.204517,-0.27699 z"
       id="path1280"
       inkscape:connector-curvature="0"
       sodipodi:nodetypes="cccccccccccccccccccccccccccccc" />
    <path
       style="color:#000000;font-style:normal;font-variant:normal;font-weight:normal;font-stretch:normal;font-size:medium;line-height:normal;font-family:sans-serif;font-variant-ligatures:normal;font-variant-position:normal;font-variant-caps:normal;font-variant-numeric:normal;font-variant-alternates:normal;font-feature-settings:normal;text-indent:0;text-align:start;text-decoration:none;text-decoration-line:none;text-decoration-style:solid;text-decoration-color:#000000;letter-spacing:normal;word-spacing:normal;text-transform:none;writing-mode:lr-tb;direction:ltr;text-orientation:mixed;dominant-baseline:auto;baseline-shift:baseline;text-anchor:start;white-space:normal;shape-padding:0;clip-rule:nonzero;display:inline;overflow:visible;visibility:visible;opacity:1;isolation:auto;mix-blend-mode:normal;color-interpolation:sRGB;color-interpolation-filters:linearRGB;solid-color:#000000;solid-opacity:1;vector-effect:none;fill:#231f20;fill-opacity:1;fill-rule:nonzero;stroke:none;stroke-width:0.07055556;stroke-linecap:butt;stroke-linejoin:miter;stroke-miterlimit:10;stroke-dasharray:none;stroke-dashoffset:0;stroke-opacity:1;color-rendering:auto;image-rendering:auto;shape-rendering:auto;text-rendering:auto;enable-background:accumulate"
       d="m 90.679688,204.63867 v 0.0703 h 6.017578 v -0.0703 z"
       id="path1310"
       inkscape:connector-curvature="0" />
    <path
       style="color:#000000;font-style:normal;font-variant:normal;font-weight:normal;font-stretch:normal;font-size:medium;line-height:normal;font-family:sans-serif;font-variant-ligatures:normal;font-variant-position:normal;font-variant-caps:normal;font-variant-numeric:normal;font-variant-alternates:normal;font-feature-settings:normal;text-indent:0;text-align:start;text-decoration:none;text-decoration-line:none;text-decoration-style:solid;text-decoration-color:#000000;letter-spacing:normal;word-spacing:normal;text-transform:none;writing-mode:lr-tb;direction:ltr;text-orientation:mixed;dominant-baseline:auto;baseline-shift:baseline;text-anchor:start;white-space:normal;shape-padding:0;clip-rule:nonzero;display:inline;overflow:visible;visibility:visible;opacity:1;isolation:auto;mix-blend-mode:normal;color-interpolation:sRGB;color-interpolation-filters:linearRGB;solid-color:#000000;solid-opacity:1;vector-effect:none;fill:#231f20;fill-opacity:1;fill-rule:nonzero;stroke:none;stroke-width:0.07055556;stroke-linecap:butt;stroke-linejoin:miter;stroke-miterlimit:10;stroke-dasharray:none;stroke-dashoffset:0;stroke-opacity:1;color-rendering:auto;image-rendering:auto;shape-rendering:auto;text-rendering:auto;enable-background:accumulate"
       d="m 90.679688,209.62109 v 0.0703 h 6.017578 v -0.0703 z"
       id="path1312"
       inkscape:connector-curvature="0" />
    <g
       id="g1109">
      <path
         style="color:#000000;font-style:normal;font-variant:normal;font-weight:normal;font-stretch:normal;font-size:medium;line-height:normal;font-family:sans-serif;font-variant-ligatures:normal;font-variant-position:normal;font-variant-caps:normal;font-variant-numeric:normal;font-variant-alternates:normal;font-feature-settings:normal;text-indent:0;text-align:start;text-decoration:none;text-decoration-line:none;text-decoration-style:solid;text-decoration-color:#000000;letter-spacing:normal;word-spacing:normal;text-transform:none;writing-mode:lr-tb;direction:ltr;text-orientation:mixed;dominant-baseline:auto;baseline-shift:baseline;text-anchor:start;white-space:normal;shape-padding:0;clip-rule:nonzero;display:inline;overflow:visible;visibility:visible;opacity:1;isolation:auto;mix-blend-mode:normal;color-interpolation:sRGB;color-interpolation-filters:linearRGB;solid-color:#000000;solid-opacity:1;vector-effect:none;fill:#231f20;fill-opacity:1;fill-rule:nonzero;stroke:none;stroke-width:0.10583334;stroke-linecap:butt;stroke-linejoin:miter;stroke-miterlimit:10;stroke-dasharray:none;stroke-dashoffset:0;stroke-opacity:1;color-rendering:auto;image-rendering:auto;shape-rendering:auto;text-rendering:auto;enable-background:accumulate"
         d="m 92.691406,200.875 v 3.63281 h 0.105469 V 200.875 Z"
         id="path1346"
         inkscape:connector-curvature="0" />
      <path
         inkscape:connector-curvature="0"
         style="fill:#231f20;fill-opacity:1;fill-rule:evenodd;stroke:#231f20;stroke-width:0.08466667pt;stroke-opacity:1"
         d="m 92.744559,203.4497 -0.423333,-0.42334 0.423333,1.48167 0.423333,-1.48167 z"
         id="path1115" />
    </g>
    <g
       id="g1099">
      <path
         style="color:#000000;font-style:normal;font-variant:normal;font-weight:normal;font-stretch:normal;font-size:medium;line-height:normal;font-family:sans-serif;font-variant-ligatures:normal;font-variant-position:normal;font-variant-caps:normal;font-variant-numeric:normal;font-variant-alternates:normal;font-feature-settings:normal;text-indent:0;text-align:start;text-decoration:none;text-decoration-line:none;text-decoration-style:solid;text-decoration-color:#000000;letter-spacing:normal;word-spacing:normal;text-transform:none;writing-mode:lr-tb;direction:ltr;text-orientation:mixed;dominant-baseline:auto;baseline-shift:baseline;text-anchor:start;white-space:normal;shape-padding:0;clip-rule:nonzero;display:inline;overflow:visible;visibility:visible;opacity:1;isolation:auto;mix-blend-mode:normal;color-interpolation:sRGB;color-interpolation-filters:linearRGB;solid-color:#000000;solid-opacity:1;vector-effect:none;fill:#231f20;fill-opacity:1;fill-rule:nonzero;stroke:none;stroke-width:0.10583333;stroke-linecap:butt;stroke-linejoin:miter;stroke-miterlimit:10;stroke-dasharray:none;stroke-dashoffset:0;stroke-opacity:1;color-rendering:auto;image-rendering:auto;shape-rendering:auto;text-rendering:auto;enable-background:accumulate"
         d="m 51.658203,182.02148 -0.05078,0.0937 31.886719,17.25196 0.05078,-0.0918 z"
         id="path1364"
         inkscape:connector-curvature="0" />
      <path
         inkscape:connector-curvature="0"
         style="fill:#231f20;fill-opacity:1;fill-rule:evenodd;stroke:#231f20;stroke-width:0.08466667pt;stroke-opacity:1"
         d="m 52.563585,182.57155 0.573783,-0.17086 -1.504595,-0.33278 1.10168,1.07743 z"
         id="path1105" />
      <path
         inkscape:connector-curvature="0"
         id="path1107"
         d="m 82.588847,198.81764 -0.573783,0.17086 1.504595,0.33278 -1.10168,-1.07743 z"
         style="fill:#231f20;fill-opacity:1;fill-rule:evenodd;stroke:#231f20;stroke-width:0.08466667pt;stroke-opacity:1" />
    </g>
    <path
       style="color:#000000;font-style:normal;font-variant:normal;font-weight:normal;font-stretch:normal;font-size:medium;line-height:normal;font-family:sans-serif;font-variant-ligatures:normal;font-variant-position:normal;font-variant-caps:normal;font-variant-numeric:normal;font-variant-alternates:normal;font-feature-settings:normal;text-indent:0;text-align:start;text-decoration:none;text-decoration-line:none;text-decoration-style:solid;text-decoration-color:#000000;letter-spacing:normal;word-spacing:normal;text-transform:none;writing-mode:lr-tb;direction:ltr;text-orientation:mixed;dominant-baseline:auto;baseline-shift:baseline;text-anchor:start;white-space:normal;shape-padding:0;clip-rule:nonzero;display:inline;overflow:visible;visibility:visible;opacity:1;isolation:auto;mix-blend-mode:normal;color-interpolation:sRGB;color-interpolation-filters:linearRGB;solid-color:#000000;solid-opacity:1;vector-effect:none;fill:#231f20;fill-opacity:1;fill-rule:nonzero;stroke:none;stroke-width:0.07055556;stroke-linecap:butt;stroke-linejoin:miter;stroke-miterlimit:10;stroke-dasharray:none;stroke-dashoffset:0;stroke-opacity:1;color-rendering:auto;image-rendering:auto;shape-rendering:auto;text-rendering:auto;enable-background:accumulate"
       d="m 51.447266,180.75391 v 2.46875 h 0.07031 v -2.46875 z"
       id="path1370"
       inkscape:connector-curvature="0" />
    <path
       style="color:#000000;font-style:normal;font-variant:normal;font-weight:normal;font-stretch:normal;font-size:medium;line-height:normal;font-family:sans-serif;font-variant-ligatures:normal;font-variant-position:normal;font-variant-caps:normal;font-variant-numeric:normal;font-variant-alternates:normal;font-feature-settings:normal;text-indent:0;text-align:start;text-decoration:none;text-decoration-line:none;text-decoration-style:solid;text-decoration-color:#000000;letter-spacing:normal;word-spacing:normal;text-transform:none;writing-mode:lr-tb;direction:ltr;text-orientation:mixed;dominant-baseline:auto;baseline-shift:baseline;text-anchor:start;white-space:normal;shape-padding:0;clip-rule:nonzero;display:inline;overflow:visible;visibility:visible;opacity:1;isolation:auto;mix-blend-mode:normal;color-interpolation:sRGB;color-interpolation-filters:linearRGB;solid-color:#000000;solid-opacity:1;vector-effect:none;fill:#231f20;fill-opacity:1;fill-rule:nonzero;stroke:none;stroke-width:0.07055556;stroke-linecap:butt;stroke-linejoin:miter;stroke-miterlimit:10;stroke-dasharray:none;stroke-dashoffset:0;stroke-opacity:1;color-rendering:auto;image-rendering:auto;shape-rendering:auto;text-rendering:auto;enable-background:accumulate"
       d="m 83.652344,198.26562 v 2.46876 h 0.07031 v -2.46876 z"
       id="path1372"
       inkscape:connector-curvature="0" />
    <g
       id="g1087">
      <path
         style="color:#000000;font-style:normal;font-variant:normal;font-weight:normal;font-stretch:normal;font-size:medium;line-height:normal;font-family:sans-serif;font-variant-ligatures:normal;font-variant-position:normal;font-variant-caps:normal;font-variant-numeric:normal;font-variant-alternates:normal;font-feature-settings:normal;text-indent:0;text-align:start;text-decoration:none;text-decoration-line:none;text-decoration-style:solid;text-decoration-color:#000000;letter-spacing:normal;word-spacing:normal;text-transform:none;writing-mode:lr-tb;direction:ltr;text-orientation:mixed;dominant-baseline:auto;baseline-shift:baseline;text-anchor:start;white-space:normal;shape-padding:0;clip-rule:nonzero;display:inline;overflow:visible;visibility:visible;opacity:1;isolation:auto;mix-blend-mode:normal;color-interpolation:sRGB;color-interpolation-filters:linearRGB;solid-color:#000000;solid-opacity:1;vector-effect:none;fill:#000000;fill-opacity:1;fill-rule:nonzero;stroke:none;stroke-width:0.10583333;stroke-linecap:butt;stroke-linejoin:miter;stroke-miterlimit:4;stroke-dasharray:none;stroke-dashoffset:0;stroke-opacity:1;color-rendering:auto;image-rendering:auto;shape-rendering:auto;text-rendering:auto;enable-background:accumulate"
         d="m 96.738281,209.62305 -0.07422,0.0742 1.554688,1.55468 0.07422,-0.0762 z"
         id="path2434"
         inkscape:connector-curvature="0" />
      <path
         inkscape:connector-curvature="0"
         style="fill:#000000;fill-opacity:1;fill-rule:evenodd;stroke:#000000;stroke-width:0.08466667pt;stroke-opacity:1"
         d="m 97.506843,210.46527 h -0.598684 l 1.347039,0.74835 -0.748355,-1.34704 z"
         id="path1093" />
    </g>
    <path
       style="color:#000000;font-style:normal;font-variant:normal;font-weight:normal;font-stretch:normal;font-size:medium;line-height:normal;font-family:sans-serif;font-variant-ligatures:normal;font-variant-position:normal;font-variant-caps:normal;font-variant-numeric:normal;font-variant-alternates:normal;font-feature-settings:normal;text-indent:0;text-align:start;text-decoration:none;text-decoration-line:none;text-decoration-style:solid;text-decoration-color:#000000;letter-spacing:normal;word-spacing:normal;text-transform:none;writing-mode:lr-tb;direction:ltr;text-orientation:mixed;dominant-baseline:auto;baseline-shift:baseline;text-anchor:start;white-space:normal;shape-padding:0;clip-rule:nonzero;display:inline;overflow:visible;visibility:visible;opacity:1;isolation:auto;mix-blend-mode:normal;color-interpolation:sRGB;color-interpolation-filters:linearRGB;solid-color:#000000;solid-opacity:1;vector-effect:none;fill:#000000;fill-opacity:1;fill-rule:nonzero;stroke:none;stroke-width:0.10583333;stroke-linecap:butt;stroke-linejoin:miter;stroke-miterlimit:4;stroke-dasharray:none;stroke-dashoffset:0;stroke-opacity:1;color-rendering:auto;image-rendering:auto;shape-rendering:auto;text-rendering:auto;enable-background:accumulate"
       d="m 98.400391,211.28516 -0.07422,0.0742 1.662109,1.6621 h 3.83789 V 212.916 h -3.79492 z"
       id="path2436"
       inkscape:connector-curvature="0" />
    <g
       aria-label="a"
       style="font-style:normal;font-variant:normal;font-weight:normal;font-stretch:normal;font-size:10.58333302px;line-height:1.25;font-family:'Times New Roman';-inkscape-font-specification:'Times New Roman, ';letter-spacing:0px;word-spacing:0px;fill:#000000;fill-opacity:1;stroke:none;stroke-width:0.26458332"
       id="text2748">
      <path
         d="m 101.98084,209.80434 q 0.48401,0 0.71614,0.21237 0.23213,0.21237 0.23213,0.67663 v 1.80269 h -0.31609 l -0.084,-0.37535 h -0.0198 q -0.17286,0.21731 -0.36548,0.32102 -0.19261,0.10372 -0.52352,0.10372 -0.36054,0 -0.5976,-0.18768 -0.23707,-0.19261 -0.23707,-0.5976 0,-0.39511 0.31115,-0.60749 0.31115,-0.21731 0.95814,-0.23706 l 0.44944,-0.0148 v -0.15804 q 0,-0.33091 -0.14322,-0.45932 -0.14323,-0.12841 -0.40499,-0.12841 -0.20744,0 -0.39511,0.0642 -0.18768,0.0593 -0.35067,0.13829 l -0.13335,-0.32596 q 0.17287,-0.0938 0.40993,-0.15805 0.23707,-0.0691 0.49389,-0.0691 z m 0.51858,1.3977 -0.39017,0.0148 q -0.49389,0.0198 -0.6865,0.15804 -0.18768,0.13829 -0.18768,0.39018 0,0.22225 0.13335,0.32596 0.13829,0.10372 0.35066,0.10372 0.33091,0 0.55316,-0.18274 0.22718,-0.18768 0.22718,-0.57291 z"
         style="font-style:normal;font-variant:normal;font-weight:normal;font-stretch:normal;font-size:4.93888903px;font-family:'Noto Sans';-inkscape-font-specification:'Noto Sans';stroke-width:0.26458332"
         id="path1253"
         inkscape:connector-curvature="0" />
    </g>
    <g
       aria-label="c"
       style="font-style:normal;font-variant:normal;font-weight:normal;font-stretch:normal;font-size:10.58333302px;line-height:1.25;font-family:'Times New Roman';-inkscape-font-specification:'Times New Roman, ';letter-spacing:0px;word-spacing:0px;fill:#000000;fill-opacity:1;stroke:none;stroke-width:0.26458332"
       id="text2748-5">
      <path
         d="m 92.617661,208.41215 q -0.3556,0 -0.627239,-0.14323 -0.271639,-0.14322 -0.429684,-0.4445 -0.153105,-0.30127 -0.153105,-0.77046 0,-0.48895 0.158044,-0.79516 0.162984,-0.30622 0.4445,-0.44944 0.281517,-0.14323 0.637117,-0.14323 0.197556,0 0.385233,0.0444 0.192617,0.0395 0.31115,0.0988 l -0.13335,0.36054 q -0.118533,-0.0445 -0.276577,-0.084 -0.158045,-0.0395 -0.296334,-0.0395 -0.780344,0 -0.780344,1.0026 0,0.47907 0.187678,0.73589 0.192616,0.25189 0.567972,0.25189 0.212372,0 0.380294,-0.0445 0.167922,-0.0444 0.306211,-0.10866 v 0.38523 q -0.13335,0.0691 -0.296333,0.10372 -0.158044,0.0395 -0.385233,0.0395 z"
         style="font-style:normal;font-variant:normal;font-weight:normal;font-stretch:normal;font-size:4.93888903px;font-family:'Noto Sans';-inkscape-font-specification:'Noto Sans';stroke-width:0.26458332"
         id="path1250"
         inkscape:connector-curvature="0" />
    </g>
    <g
       aria-label="b"
       style="font-style:normal;font-variant:normal;font-weight:normal;font-stretch:normal;font-size:10.58333302px;line-height:1.25;font-family:'Times New Roman';-inkscape-font-specification:'Times New Roman, ';letter-spacing:0px;word-spacing:0px;fill:#000000;fill-opacity:1;stroke:none;stroke-width:0.26458332"
       id="text2748-8">
      <path
         d="m 101.68337,198.79764 v 0.91369 q 0,0.16792 -0.01,0.31609 -0.005,0.14323 -0.0148,0.22719 h 0.0247 q 0.11359,-0.16792 0.31115,-0.28152 0.19755,-0.11359 0.5087,-0.11359 0.49389,0 0.79023,0.34572 0.30127,0.34078 0.30127,1.02235 0,0.68157 -0.30127,1.02729 -0.30128,0.34572 -0.79023,0.34572 -0.31115,0 -0.5087,-0.11359 -0.19756,-0.1136 -0.31115,-0.27164 h -0.0346 l -0.0889,0.33584 h -0.31115 v -3.75355 z m 0.74577,1.4224 q -0.42474,0 -0.58773,0.242 -0.15804,0.24201 -0.15804,0.75071 v 0.0198 q 0,0.48895 0.15804,0.75071 0.16299,0.25682 0.59761,0.25682 0.3556,0 0.52846,-0.26176 0.1778,-0.26176 0.1778,-0.75565 0,-1.00259 -0.71614,-1.00259 z"
         style="font-style:normal;font-variant:normal;font-weight:normal;font-stretch:normal;font-size:4.93888903px;font-family:'Noto Sans';-inkscape-font-specification:'Noto Sans';stroke-width:0.26458332"
         id="path1247"
         inkscape:connector-curvature="0" />
    </g>
    <g
       id="g1068">
      <path
         style="color:#000000;font-style:normal;font-variant:normal;font-weight:normal;font-stretch:normal;font-size:medium;line-height:normal;font-family:sans-serif;font-variant-ligatures:normal;font-variant-position:normal;font-variant-caps:normal;font-variant-numeric:normal;font-variant-alternates:normal;font-feature-settings:normal;text-indent:0;text-align:start;text-decoration:none;text-decoration-line:none;text-decoration-style:solid;text-decoration-color:#000000;letter-spacing:normal;word-spacing:normal;text-transform:none;writing-mode:lr-tb;direction:ltr;text-orientation:mixed;dominant-baseline:auto;baseline-shift:baseline;text-anchor:start;white-space:normal;shape-padding:0;clip-rule:nonzero;display:inline;overflow:visible;visibility:visible;opacity:1;isolation:auto;mix-blend-mode:normal;color-interpolation:sRGB;color-interpolation-filters:linearRGB;solid-color:#000000;solid-opacity:1;vector-effect:none;fill:#231f20;fill-opacity:1;fill-rule:nonzero;stroke:none;stroke-width:0.10583334;stroke-linecap:butt;stroke-linejoin:miter;stroke-miterlimit:10;stroke-dasharray:none;stroke-dashoffset:0;stroke-opacity:1;color-rendering:auto;image-rendering:auto;shape-rendering:auto;text-rendering:auto;enable-background:accumulate"
         d="m 92.691406,209.81641 v 3.63281 h 0.105469 v -3.63281 z"
         id="path1346-4"
         inkscape:connector-curvature="0" />
      <path
         style="fill:#231f20;fill-opacity:1;fill-rule:evenodd;stroke:#231f20;stroke-width:0.08466667pt;stroke-opacity:1"
         d="m 92.744559,210.87441 0.423333,0.42334 -0.423333,-1.48167 -0.423333,1.48167 z"
         id="path1075"
         inkscape:connector-curvature="0" />
    </g>
    <g
       aria-label="L"
       style="font-style:normal;font-variant:normal;font-weight:normal;font-stretch:normal;font-size:10.58333302px;line-height:1.25;font-family:'Times New Roman';-inkscape-font-specification:'Times New Roman, ';letter-spacing:0px;word-spacing:0px;fill:#000000;fill-opacity:1;stroke:none;stroke-width:0.26458332"
       id="text2748-8-6">
      <path
         d="m 69.217895,190.80569 v -3.52636 h 0.4445 v 3.13125 h 1.540934 v 0.39511 z"
         style="font-style:normal;font-variant:normal;font-weight:normal;font-stretch:normal;font-size:4.93888903px;font-family:'Noto Sans';-inkscape-font-specification:'Noto Sans';stroke-width:0.26458332"
         id="path1244"
         inkscape:connector-curvature="0" />
    </g>
    <g
       aria-label="metal"
       transform="skewY(28.418131)"
       style="font-style:normal;font-variant:normal;font-weight:normal;font-stretch:normal;font-size:6.56344175px;line-height:1.25;font-family:'Times New Roman';-inkscape-font-specification:'Times New Roman, ';letter-spacing:0px;word-spacing:0px;fill:#fb8c00;fill-opacity:1;stroke:none;stroke-width:0.26458332"
       id="text1199">
      <path
         d="m 63.109011,156.76856 q 0.597273,0 0.892628,0.30849 0.295355,0.30848 0.295355,0.98451 v 2.29064 h -0.57102 v -2.26438 q 0,-0.83356 -0.715415,-0.83356 -0.511948,0 -0.735105,0.29535 -0.216594,0.29536 -0.216594,0.85981 v 1.94278 h -0.571019 v -2.26438 q 0,-0.83356 -0.721979,-0.83356 -0.531639,0 -0.735105,0.32817 -0.203467,0.32817 -0.203467,0.94514 v 1.82463 h -0.577583 v -3.518 h 0.466004 l 0.08533,0.47913 h 0.03282 q 0.164086,-0.27566 0.439751,-0.40693 0.282228,-0.13784 0.597273,-0.13784 0.826994,0 1.076405,0.59071 h 0.03282 q 0.177213,-0.30191 0.479131,-0.44631 0.301918,-0.1444 0.649781,-0.1444 z"
         style="font-style:normal;font-variant:normal;font-weight:normal;font-stretch:normal;font-family:'Noto Sans';-inkscape-font-specification:'Noto Sans';fill:#fb8c00;fill-opacity:1;stroke-width:0.26458332"
         id="path1233"
         inkscape:connector-curvature="0" />
      <path
         d="m 66.748747,156.76856 q 0.446314,0 0.774486,0.19691 0.328172,0.1969 0.498822,0.55789 0.177213,0.35443 0.177213,0.83356 v 0.34786 h -2.408784 q 0.01313,0.59727 0.301919,0.91232 0.295355,0.30848 0.82043,0.30848 0.334736,0 0.59071,-0.0591 0.262537,-0.0656 0.538202,-0.18378 v 0.50539 q -0.269101,0.11814 -0.531639,0.17065 -0.262537,0.0591 -0.623527,0.0591 -0.505385,0 -0.886064,-0.20347 -0.38068,-0.20347 -0.597274,-0.60384 -0.21003,-0.40037 -0.21003,-0.99108 0,-0.57758 0.19034,-0.99107 0.196903,-0.4135 0.544766,-0.63666 0.354426,-0.22316 0.82043,-0.22316 z m -0.0066,0.47257 q -0.413497,0 -0.656345,0.2691 -0.236284,0.26254 -0.282228,0.73511 h 1.79182 q -0.0066,-0.44632 -0.21003,-0.72198 -0.203467,-0.28223 -0.643217,-0.28223 z"
         style="font-style:normal;font-variant:normal;font-weight:normal;font-stretch:normal;font-family:'Noto Sans';-inkscape-font-specification:'Noto Sans';fill:#fb8c00;fill-opacity:1;stroke-width:0.26458332"
         id="path1235"
         inkscape:connector-curvature="0" />
      <path
         d="m 70.269726,159.94527 q 0.131269,0 0.269102,-0.0197 0.137832,-0.0197 0.223157,-0.0525 v 0.43975 q -0.09189,0.046 -0.262538,0.0722 -0.17065,0.0328 -0.328172,0.0328 -0.275665,0 -0.511949,-0.0919 -0.22972,-0.0985 -0.374116,-0.33474 -0.144396,-0.23628 -0.144396,-0.6629 v -2.0478 h -0.498821 v -0.27566 l 0.505385,-0.22972 0.22972,-0.74823 h 0.341299 v 0.8073 h 1.017334 v 0.44631 h -1.017334 v 2.03467 q 0,0.32161 0.150959,0.47913 0.157523,0.15096 0.40037,0.15096 z"
         style="font-style:normal;font-variant:normal;font-weight:normal;font-stretch:normal;font-family:'Noto Sans';-inkscape-font-specification:'Noto Sans';fill:#fb8c00;fill-opacity:1;stroke-width:0.26458332"
         id="path1237"
         inkscape:connector-curvature="0" />
      <path
         d="m 72.798804,156.77513 q 0.643218,0 0.951699,0.28223 0.308482,0.28222 0.308482,0.89919 v 2.39565 h -0.42006 l -0.111579,-0.49882 h -0.02625 q -0.229721,0.28879 -0.485695,0.42663 -0.255974,0.13783 -0.695725,0.13783 -0.479131,0 -0.794176,-0.24941 -0.315046,-0.25598 -0.315046,-0.79418 0,-0.52507 0.413497,-0.8073 0.413497,-0.28879 1.273308,-0.31505 l 0.597273,-0.0197 v -0.21003 q 0,-0.43975 -0.19034,-0.6104 -0.190339,-0.17065 -0.538202,-0.17065 -0.275664,0 -0.525075,0.0853 -0.249411,0.0788 -0.466005,0.18377 l -0.177213,-0.43318 q 0.229721,-0.12471 0.544766,-0.21003 0.315045,-0.0919 0.656344,-0.0919 z m 0.689162,1.85745 -0.518512,0.0197 q -0.656344,0.0263 -0.912319,0.21003 -0.24941,0.18378 -0.24941,0.51851 0,0.29536 0.177213,0.43319 0.183776,0.13783 0.466004,0.13783 0.439751,0 0.735105,-0.24284 0.301919,-0.24941 0.301919,-0.76136 z"
         style="font-style:normal;font-variant:normal;font-weight:normal;font-stretch:normal;font-family:'Noto Sans';-inkscape-font-specification:'Noto Sans';fill:#fb8c00;fill-opacity:1;stroke-width:0.26458332"
         id="path1239"
         inkscape:connector-curvature="0" />
      <path
         d="m 75.723126,160.3522 h -0.577583 v -4.98821 h 0.577583 z"
         style="font-style:normal;font-variant:normal;font-weight:normal;font-stretch:normal;font-family:'Noto Sans';-inkscape-font-specification:'Noto Sans';fill:#fb8c00;fill-opacity:1;stroke-width:0.26458332"
         id="path1241"
         inkscape:connector-curvature="0" />
    </g>
    <g
       id="g1225"
       transform="matrix(0.98431176,0,0,0.99524824,1.5173384,0.97280592)"
       style="stroke-width:1.01034093">
      <path
         style="color:#000000;font-style:normal;font-variant:normal;font-weight:normal;font-stretch:normal;font-size:medium;line-height:normal;font-family:sans-serif;font-variant-ligatures:normal;font-variant-position:normal;font-variant-caps:normal;font-variant-numeric:normal;font-variant-alternates:normal;font-feature-settings:normal;text-indent:0;text-align:start;text-decoration:none;text-decoration-line:none;text-decoration-style:solid;text-decoration-color:#000000;letter-spacing:normal;word-spacing:normal;text-transform:none;writing-mode:lr-tb;direction:ltr;text-orientation:mixed;dominant-baseline:auto;baseline-shift:baseline;text-anchor:start;white-space:normal;shape-padding:0;clip-rule:nonzero;display:inline;overflow:visible;visibility:visible;opacity:1;isolation:auto;mix-blend-mode:normal;color-interpolation:sRGB;color-interpolation-filters:linearRGB;solid-color:#000000;solid-opacity:1;vector-effect:none;fill:#000000;fill-opacity:1;fill-rule:nonzero;stroke:none;stroke-width:0.10692775;stroke-linecap:butt;stroke-linejoin:miter;stroke-miterlimit:4;stroke-dasharray:none;stroke-dashoffset:0;stroke-opacity:1;color-rendering:auto;image-rendering:auto;shape-rendering:auto;text-rendering:auto;enable-background:accumulate"
         d="m 109.31836,201.20117 -12.634766,3.45703 0.02734,0.10157 12.634766,-3.45704 z"
         id="path1205"
         inkscape:connector-curvature="0" />
      <path
         inkscape:connector-curvature="0"
         style="fill:#000000;fill-opacity:1;fill-rule:evenodd;stroke:#000000;stroke-width:0.08554221pt;stroke-opacity:1"
         d="m 108.31099,201.53065 -0.29657,0.52006 1.31737,-0.79942 -1.54086,-0.0172 z"
         id="path1231" />
    </g>
  </g>
</svg>
