<svg id="Layer_1" data-name="Layer 1" xmlns="http://www.w3.org/2000/svg" viewBox="0 0 411.56 411.56"><defs><style>.cls-1{fill:#e6e7e8;}.cls-2{fill:#679f42;}.cls-3{fill:#c6e0a6;}.cls-4{fill:#fff;stroke:#231f20;stroke-miterlimit:10;}.cls-10,.cls-5,.cls-6,.cls-8,.cls-9{fill:none;stroke:#006838;stroke-linecap:round;stroke-linejoin:round;stroke-width:3px;}.cls-6{stroke-dasharray:6.31 12.63;}.cls-7{fill:#006838;}.cls-8{stroke-dasharray:5.77 11.54;}.cls-9{stroke-dasharray:5.79 11.58;}.cls-10{stroke-dasharray:6.25 12.51;}</style></defs><title>ic_launcher</title><rect id="_Rectangle_" data-name="&lt;Rectangle&gt;" class="cls-1" width="411.56" height="411.56"/><rect id="_Rectangle_2" data-name="&lt;Rectangle&gt;" class="cls-2" y="327.89" width="411.56" height="83.67"/><rect id="_Rectangle_3" data-name="&lt;Rectangle&gt;" class="cls-3" y="178.22" width="411.56" height="149.67"/><path id="_Path_" data-name="&lt;Path&gt;" class="cls-4" d="M408.75,567.49" transform="translate(-100.22 -217.78)"/><path id="_Path_2" data-name="&lt;Path&gt;" class="cls-4" d="M389.33,396.74" transform="translate(-100.22 -217.78)"/><g id="_Group_" data-name="&lt;Group&gt;"><g id="_Group_2" data-name="&lt;Group&gt;"><line class="cls-5" x1="205.78" y1="173.42" x2="205.78" y2="176.42"/><line class="cls-6" x1="205.78" y1="189.05" x2="205.78" y2="315.32"/><line class="cls-5" x1="205.78" y1="321.64" x2="205.78" y2="324.64"/><polygon class="cls-7" points="193.51 314.7 195.71 312.65 205.78 323.49 215.85 312.65 218.05 314.7 205.78 327.89 193.51 314.7"/></g><g id="_Group_3" data-name="&lt;Group&gt;"><g id="_Group_4" data-name="&lt;Group&gt;"><line class="cls-5" x1="248.67" y1="173.42" x2="248.67" y2="176.42"/><line class="cls-6" x1="248.67" y1="189.05" x2="248.67" y2="315.32"/><line class="cls-5" x1="248.67" y1="321.64" x2="248.67" y2="324.64"/><polygon class="cls-7" points="236.4 314.7 238.59 312.65 248.66 323.49 258.74 312.65 260.93 314.7 248.66 327.89 236.4 314.7"/></g><g id="_Group_5" data-name="&lt;Group&gt;"><path class="cls-5" d="M389.33,381.66s1.08-.08,3-.07" transform="translate(-100.22 -217.78)"/><path class="cls-8" d="M403.83,382.41a90.41,90.41,0,0,1,28.72,8.79c21.77,11.08,31.29,41.23,34.69,56S471.33,513,471.33,518v15.67" transform="translate(-100.22 -217.78)"/><path class="cls-5" d="M471.33,539.42v3" transform="translate(-100.22 -217.78)"/><polygon class="cls-7" points="358.85 314.7 361.04 312.65 371.11 323.49 381.19 312.65 383.38 314.7 371.11 327.89 358.85 314.7"/></g><g id="_Group_6" data-name="&lt;Group&gt;"><path class="cls-5" d="M389.33,391.19a5.34,5.34,0,0,1,2.73,1.17" transform="translate(-100.22 -217.78)"/><path class="cls-9" d="M398.83,401.62c2.52,5.38,5.12,13.53,7.2,25.88,4.68,27.73,3.8,82,3.12,106.13" transform="translate(-100.22 -217.78)"/><path class="cls-5" d="M409,539.43c0,1.14-.07,2.15-.1,3" transform="translate(-100.22 -217.78)"/><polygon class="cls-7" points="296.7 314.3 298.96 312.33 308.67 323.49 319.09 312.99 321.22 315.1 308.53 327.89 296.7 314.3"/></g><g id="_Group_7" data-name="&lt;Group&gt;"><path class="cls-5" d="M389.33,372.12a21.73,21.73,0,0,1,1.36-2.67" transform="translate(-100.22 -217.78)"/><path class="cls-10" d="M398.41,359.65a73.62,73.62,0,0,1,23.26-15.23c18.74-8,57.67-6,77.67-4.33" transform="translate(-100.22 -217.78)"/><path class="cls-5" d="M505.57,340.67l3,.31" transform="translate(-100.22 -217.78)"/><polygon class="cls-7" points="397.19 134.44 395.38 132.04 407.18 123.13 397.43 112 399.68 110.03 411.56 123.57 397.19 134.44"/></g></g><g id="_Group_8" data-name="&lt;Group&gt;"><g id="_Group_9" data-name="&lt;Group&gt;"><line class="cls-5" x1="162.9" y1="173.42" x2="162.9" y2="176.42"/><line class="cls-6" x1="162.9" y1="189.05" x2="162.9" y2="315.32"/><line class="cls-5" x1="162.9" y1="321.64" x2="162.9" y2="324.64"/><polygon class="cls-7" points="150.63 314.7 152.83 312.65 162.9 323.49 172.97 312.65 175.16 314.7 162.9 327.89 150.63 314.7"/></g><g id="_Group_10" data-name="&lt;Group&gt;"><path class="cls-5" d="M222.67,381.66s-1.08-.08-3-.07" transform="translate(-100.22 -217.78)"/><path class="cls-8" d="M208.17,382.41a90.41,90.41,0,0,0-28.72,8.79c-21.77,11.08-31.29,41.23-34.69,56S140.67,513,140.67,518v15.67" transform="translate(-100.22 -217.78)"/><path class="cls-5" d="M140.67,539.42v3" transform="translate(-100.22 -217.78)"/><polygon class="cls-7" points="28.18 314.7 30.38 312.65 40.45 323.49 50.52 312.65 52.72 314.7 40.45 327.89 28.18 314.7"/></g><g id="_Group_11" data-name="&lt;Group&gt;"><path class="cls-5" d="M222.67,391.19a5.34,5.34,0,0,0-2.73,1.17" transform="translate(-100.22 -217.78)"/><path class="cls-9" d="M213.17,401.62c-2.52,5.38-5.12,13.53-7.2,25.88-4.68,27.73-3.8,82-3.12,106.13" transform="translate(-100.22 -217.78)"/><path class="cls-5" d="M203,539.43c0,1.14.07,2.15.1,3" transform="translate(-100.22 -217.78)"/><polygon class="cls-7" points="90.34 315.1 92.47 312.99 102.89 323.49 112.6 312.33 114.86 314.3 103.03 327.89 90.34 315.1"/></g><g id="_Group_12" data-name="&lt;Group&gt;"><path class="cls-5" d="M222.67,372.12a21.73,21.73,0,0,0-1.36-2.67" transform="translate(-100.22 -217.78)"/><path class="cls-10" d="M213.59,359.65a73.62,73.62,0,0,0-23.26-15.23c-18.74-8-57.67-6-77.67-4.33" transform="translate(-100.22 -217.78)"/><path class="cls-5" d="M106.43,340.67l-3,.31" transform="translate(-100.22 -217.78)"/><polygon class="cls-7" points="11.88 110.02 14.14 112 4.38 123.12 16.18 132.04 14.37 134.43 0 123.57 11.88 110.02"/></g></g></g><rect id="_Rectangle_4" data-name="&lt;Rectangle&gt;" class="cls-2" x="120.78" y="148.56" width="170" height="29.67"/></svg>